# xmcd CD database file
#
# Track frame offsets:
#	150
#	20820
#	41138
#	72713
#	106813
#	131250
#	144450
#	171875
#
# Disc length: 2624 seconds
#
# Revision: 0
# Processed by: cddbd v1.4PL0 Copyright (c) Steve Scherf et al.
# Submitted via: CDex 1.50beta10
#
DISCID=730a3e08
DTITLE=Diana Encheva - Saturately Yours,Diana
DYEAR=1992
DGENRE=New Age
TTITLE0=My Silence
TTITLE1=Mirror Road
TTITLE2=Coasts
TTITLE3=The Rover
TTITLE4=Morris II
TTITLE5=Artist
TTITLE6=He Simply Flew Down The Road
TTITLE7=The City
EXTD=YEAR: 1992
EXTT0=
EXTT1=
EXTT2=
EXTT3=
EXTT4=
EXTT5=
EXTT6=
EXTT7=
PLAYORDER=
